<?xml version="1.0" encoding="UTF-8"?>
<svg id="Layer_2" data-name="Layer 2" xmlns="http://www.w3.org/2000/svg" viewBox="0 0 640.55 74.08">
   <defs>
    <style>
      .cls-1 {
        fill: #000;
      }
    </style>
  </defs> 
   
        <path class="cls-1" d="m21.24,59.04V15.97c0-1.46-1.18-2.64-2.64-2.64h-7.18c-6.31,0-11.42-5.11-11.42-11.42h0c0-.38.31-.69.69-.69h44.78c6.31,0,11.42,5.11,11.42,11.42h0c0,.38-.31.69-.69.69h-17.84c-1.47,0-2.66,1.19-2.66,2.66v56.12c0,.38-.31.69-.69.69h0c-7.6,0-13.77-6.16-13.77-13.77h0Z"/>
        <path class="cls-1" d="m67.7,40.3c-.06-4.28-.09-6.42-.15-10.7.47-14.78,11.86-29.2,27.81-28.38h23.93c0,6.69-5.42,12.11-12.11,12.11h-10.64c-8.76,0-15.87,7.1-15.87,15.87h35.94c0,6.66-5.4,12.06-12.06,12.06h-23.88c.14,10.74,8.74,19.34,19.48,19.48h20.51c0,6.66-5.4,12.06-12.06,12.06h-10.1c-17.14.01-31.46-15.42-30.79-32.5h-.01Z"/>
        <path class="cls-1" d="m173.14,1.22h0v45.31c0,5.92-.51,10.5-1.56,13.67-1.38,4.16-3.94,7.51-7.62,10.03s-8.53,3.78-14.55,3.78c-7.06,0-12.5-1.98-16.31-5.93-.04-.04-.08-.08-.11-.12-6.29-6.66-2.05-17.7,7.06-18.75.37-.04.55-.06.92-.11.16,4.1.76,7,1.81,8.69,1.56,2.57,3.94,3.86,7.13,3.86s5.5-.92,6.84-2.76c1.33-1.84,2-5.66,2-11.45V15.6c0-7.96,6.45-14.4,14.4-14.4v.02Z"/>
        <path class="cls-1" d="m250.1,72.8h-12.71c-.48-1.24-.72-1.87-1.2-3.11-3.26-8.46-9.58-15.4-17.69-19.44-4.63-2.31-6.94-3.46-11.56-5.77-2.86,7.82-4.29,11.73-7.15,19.55-1.93,5.27-6.94,8.77-12.54,8.77h-5.99c8.15-20.93,16.31-41.87,24.46-62.8,2.06-5.29,7.16-8.78,12.84-8.78h5.87c9.19,22.92,18.4,45.83,27.61,68.75.55,1.36-.46,2.84-1.93,2.84h0Zm-23.62-28.32c-3.29-8.85-6.58-17.71-9.87-26.56-3.22,8.85-6.45,17.71-9.67,26.56h19.54Z"/>
        <path class="cls-1" d="m271.32,48.14h0c.85,4.72,2.58,8.19,5.18,10.4,2.6,2.21,6.12,3.32,10.54,3.32,4.68,0,8.22-.98,10.59-2.95,2.38-1.97,3.56-4.27,3.56-6.91,0-1.69-.5-3.13-1.5-4.32s-2.75-2.24-5.24-3.1c-1.7-.59-5.59-1.63-11.65-3.13-7.79-1.92-13.26-4.28-16.4-7.08-4.42-3.94-6.62-8.74-6.63-14.4,0-3.65,1.04-7.06,3.12-10.23s5.07-5.59,8.98-7.25C275.78.83,280.5,0,286.04,0,295.08,0,301.89,1.97,306.46,5.91c.05.04.09.08.14.12,6.28,5.5,2.41,15.86-5.96,16.22-.61.03-.92.04-1.53.07-.62-3.68-1.96-6.32-4.01-7.93-2.05-1.61-5.12-2.42-9.21-2.42s-7.53.86-9.92,2.59c-1.54,1.11-2.31,2.59-2.31,4.44,0,1.69.72,3.14,2.16,4.35,1.83,1.53,6.29,3.12,13.36,4.79s12.31,3.38,15.71,5.15c3.39,1.77,6.05,4.2,7.97,7.28s2.88,6.88,2.88,11.4c0,4.1-1.15,7.94-3.44,11.52-2.3,3.58-5.54,6.24-9.74,7.98-4.2,1.74-9.42,2.61-15.68,2.61-9.11,0-16.1-2.09-20.97-6.27-.45-.39-.89-.8-1.31-1.22-6.46-6.5-2.43-17.55,6.71-18.43v-.02Z"/>
        <path class="cls-1" d="m356.01,1.22h28.77c5.69,0,9.93.24,12.72.71s5.29,1.46,7.49,2.95c2.2,1.5,4.04,3.49,5.51,5.98,1.47,2.49,2.2,5.28,2.2,8.37,0,3.35-.9,6.43-2.72,9.23-1.81,2.8-4.27,4.9-7.37,6.3,4.37,1.27,7.73,3.43,10.08,6.49,2.35,3.06,3.52,6.66,3.52,10.79,0,3.26-.76,6.42-2.27,9.5-1.52,3.08-3.59,5.53-6.21,7.37-2.63,1.84-5.87,2.97-9.72,3.39-2.41.26-8.25.42-17.5.49h-8.62c-8.77,0-15.88-7.07-15.88-15.79V1.21h0Zm14.54,11.91v16.55h9.52c5.66,0,9.17-.08,10.54-.24,2.48-.29,4.44-1.15,5.86-2.56,1.42-1.42,2.13-3.28,2.13-5.59s-.61-4.01-1.84-5.4c-1.22-1.38-3.06-2.23-5.46-2.51-1.43-.17-5.57-.24-12.41-.24h-8.34Zm0,28.47v14.34c0,2.65,2.16,4.81,4.83,4.81h8.62c5.23,0,8.56-.17,9.95-.44,2.12-.41,3.91-1.34,5.27-2.86,1.35-1.51,2.03-3.54,2.03-6.08,0-2.15-.52-3.97-1.57-5.47-1.05-1.5-2.56-2.59-4.53-3.27-1.98-.68-6.26-1.03-12.87-1.03h-11.73,0Z"/>
        <path class="cls-1" d="m428.49,58.35V15.67c0-7.98,6.47-14.45,14.45-14.45h0v21.46c0,3.71,3.01,6.71,6.71,6.71h0c11.91-.16,21.45-9.7,21.61-21.61V1.22h0c7.98,0,14.45,6.47,14.45,14.45v42.68c0,7.98-6.47,14.45-14.45,14.45h0v-28.91c0-1.32-1.07-2.39-2.39-2.39h0c-14.35-.59-25.35,12.48-25.93,25.93v5.37h0c-7.98,0-14.45-6.47-14.45-14.45Z"/>
        <path class="cls-1" d="m581.57,59.09V15.25c0-1.06-.86-1.92-1.92-1.92h-7.95c-6.28,0-11.36-5.09-11.36-11.36v-.75h45.52c6.28,0,11.36,5.09,11.36,11.36v.75h-18.54c-1.46,0-2.65,1.19-2.65,2.65v56.83h-.75c-7.57,0-13.71-6.14-13.71-13.71h0Z"/>
        <path class="cls-1" d="m626.1,72.8V15.67c0-7.98,6.47-14.45,14.45-14.45h0v57.13c0,7.98-6.47,14.45-14.45,14.45h0Z"/>
        <path class="cls-1" d="m562.85,71.58h-12.67l-1.19-3.11c-3.25-8.46-9.55-15.4-17.66-19.44l-11.56-5.77-7.15,19.55c-1.93,5.27-6.94,8.77-12.54,8.77h-5.99l24.46-62.8c2.05-5.29,7.15-8.78,12.83-8.78h5.86l27.53,68.75c.54,1.36-.46,2.84-1.92,2.84h0Zm-23.56-28.32l-9.86-26.56-9.67,26.56h19.53,0Z"/>
    
  
</svg>